ISO-10303-21;
HEADER;
/* Generated by software containing ST-Developer
 * from STEP Tools, Inc. (www.steptools.com) 
 */
/* OPTION: using custom renumber hook */

FILE_DESCRIPTION(
/* description */ ('STEP AP242 Edition 2',
'CAx-IF Rec.Pracs.---Representation and Presentation of Product Manufa
cturing Information (PMI)---4.0---2014-10-13',
'CAx-IF Rec.Pracs.---3D Tessellated Geometry---0.4---2014-09-14','2;1',
'CAx-IF Rec.Pracs.---User Defined Attributes---1.5---2016-08-15'),
/* implementation_level */ '2;1');

FILE_NAME(
/* name */ 'Print-PartStudio - Part 9',
/* time_stamp */ '2026-09-26T22:13:08Z',
/* author */ (''),
/* organization */ (''),
/* preprocessor_version */ 'ST-DEVELOPER v20',
/* originating_system */ 'ONSHAPE BY PTC INC, 1.221',
/* authorisation */ '  ');

FILE_SCHEMA (('AP242_MANAGED_MODEL_BASED_3D_ENGINEERING_MIM_LF { 1 0 10303 442 3 1 4 }'));
ENDSEC;

DATA;
#10=SHAPE_REPRESENTATION_RELATIONSHIP('','',#297,#11);
#11=ADVANCED_BREP_SHAPE_REPRESENTATION('',(#295),#509);
#12=B_SPLINE_SURFACE_WITH_KNOTS('',3,1,((#450,#451),(#452,#453),(#454,#455),
(#456,#457)),.SURF_OF_LINEAR_EXTRUSION.,.F.,.F.,.F.,(4,4),(2,2),(1.57079635934084,
2.45019005483562),(0.,1.),.PIECEWISE_BEZIER_KNOTS.);
#13=LINE('',#437,#33);
#14=LINE('',#441,#34);
#15=LINE('',#445,#35);
#16=LINE('',#448,#36);
#17=LINE('',#449,#37);
#18=LINE('',#458,#38);
#19=LINE('',#468,#39);
#20=LINE('',#472,#40);
#21=LINE('',#475,#41);
#22=LINE('',#476,#42);
#23=LINE('',#478,#43);
#24=LINE('',#481,#44);
#25=LINE('',#483,#45);
#26=LINE('',#484,#46);
#27=LINE('',#486,#47);
#28=LINE('',#488,#48);
#29=LINE('',#490,#49);
#30=LINE('',#492,#50);
#31=LINE('',#504,#51);
#32=LINE('',#506,#52);
#33=VECTOR('',#354,1.);
#34=VECTOR('',#357,1.);
#35=VECTOR('',#362,1.);
#36=VECTOR('',#363,1.);
#37=VECTOR('',#364,1.);
#38=VECTOR('',#365,1.);
#39=VECTOR('',#376,1.);
#40=VECTOR('',#381,1.);
#41=VECTOR('',#382,1.);
#42=VECTOR('',#383,1.);
#43=VECTOR('',#386,1.);
#44=VECTOR('',#387,1.);
#45=VECTOR('',#388,1.);
#46=VECTOR('',#389,1.);
#47=VECTOR('',#390,1.);
#48=VECTOR('',#393,1.);
#49=VECTOR('',#394,1.);
#50=VECTOR('',#395,1.);
#51=VECTOR('',#414,1.);
#52=VECTOR('',#417,1.);
#53=ELLIPSE('',#308,0.00482553350390298,0.00479427805077241);
#54=ELLIPSE('',#312,0.00479354843773328,0.00476250015500899);
#55=ELLIPSE('',#313,0.00479354843773328,0.00476250015500899);
#56=ELLIPSE('',#317,0.0047936083420803,0.00476255967134969);
#57=ELLIPSE('',#322,0.00482415666879328,0.00479291013355856);
#58=PLANE('',#302);
#59=PLANE('',#306);
#60=PLANE('',#311);
#61=PLANE('',#318);
#62=PLANE('',#319);
#63=PLANE('',#320);
#64=PLANE('',#324);
#65=PLANE('',#326);
#66=PLANE('',#329);
#67=PLANE('',#330);
#68=PLANE('',#331);
#69=ORIENTED_EDGE('',*,*,#141,.F.);
#70=ORIENTED_EDGE('',*,*,#142,.T.);
#71=ORIENTED_EDGE('',*,*,#142,.F.);
#72=ORIENTED_EDGE('',*,*,#143,.F.);
#73=ORIENTED_EDGE('',*,*,#144,.T.);
#74=ORIENTED_EDGE('',*,*,#144,.F.);
#75=ORIENTED_EDGE('',*,*,#145,.F.);
#76=ORIENTED_EDGE('',*,*,#146,.T.);
#77=ORIENTED_EDGE('',*,*,#147,.F.);
#78=ORIENTED_EDGE('',*,*,#148,.F.);
#79=ORIENTED_EDGE('',*,*,#149,.F.);
#80=ORIENTED_EDGE('',*,*,#150,.F.);
#81=ORIENTED_EDGE('',*,*,#151,.T.);
#82=ORIENTED_EDGE('',*,*,#148,.T.);
#83=ORIENTED_EDGE('',*,*,#152,.T.);
#84=ORIENTED_EDGE('',*,*,#153,.F.);
#85=ORIENTED_EDGE('',*,*,#154,.T.);
#86=ORIENTED_EDGE('',*,*,#150,.T.);
#87=ORIENTED_EDGE('',*,*,#155,.T.);
#88=ORIENTED_EDGE('',*,*,#156,.F.);
#89=ORIENTED_EDGE('',*,*,#153,.T.);
#90=ORIENTED_EDGE('',*,*,#157,.F.);
#91=ORIENTED_EDGE('',*,*,#158,.F.);
#92=ORIENTED_EDGE('',*,*,#159,.F.);
#93=ORIENTED_EDGE('',*,*,#160,.F.);
#94=ORIENTED_EDGE('',*,*,#161,.T.);
#95=ORIENTED_EDGE('',*,*,#158,.T.);
#96=ORIENTED_EDGE('',*,*,#162,.T.);
#97=ORIENTED_EDGE('',*,*,#163,.F.);
#98=ORIENTED_EDGE('',*,*,#164,.F.);
#99=ORIENTED_EDGE('',*,*,#165,.F.);
#100=ORIENTED_EDGE('',*,*,#160,.T.);
#101=ORIENTED_EDGE('',*,*,#166,.F.);
#102=ORIENTED_EDGE('',*,*,#167,.F.);
#103=ORIENTED_EDGE('',*,*,#168,.F.);
#104=ORIENTED_EDGE('',*,*,#167,.T.);
#105=ORIENTED_EDGE('',*,*,#169,.F.);
#106=ORIENTED_EDGE('',*,*,#170,.F.);
#107=ORIENTED_EDGE('',*,*,#146,.F.);
#108=ORIENTED_EDGE('',*,*,#171,.T.);
#109=ORIENTED_EDGE('',*,*,#170,.T.);
#110=ORIENTED_EDGE('',*,*,#172,.T.);
#111=ORIENTED_EDGE('',*,*,#141,.T.);
#112=ORIENTED_EDGE('',*,*,#143,.T.);
#113=ORIENTED_EDGE('',*,*,#147,.T.);
#114=ORIENTED_EDGE('',*,*,#172,.F.);
#115=ORIENTED_EDGE('',*,*,#169,.T.);
#116=ORIENTED_EDGE('',*,*,#166,.T.);
#117=ORIENTED_EDGE('',*,*,#162,.F.);
#118=ORIENTED_EDGE('',*,*,#157,.T.);
#119=ORIENTED_EDGE('',*,*,#155,.F.);
#120=ORIENTED_EDGE('',*,*,#152,.F.);
#121=ORIENTED_EDGE('',*,*,#173,.F.);
#122=ORIENTED_EDGE('',*,*,#174,.F.);
#123=ORIENTED_EDGE('',*,*,#173,.T.);
#124=ORIENTED_EDGE('',*,*,#174,.T.);
#125=ORIENTED_EDGE('',*,*,#145,.T.);
#126=ORIENTED_EDGE('',*,*,#175,.F.);
#127=ORIENTED_EDGE('',*,*,#163,.T.);
#128=ORIENTED_EDGE('',*,*,#168,.T.);
#129=ORIENTED_EDGE('',*,*,#171,.F.);
#130=ORIENTED_EDGE('',*,*,#149,.T.);
#131=ORIENTED_EDGE('',*,*,#151,.F.);
#132=ORIENTED_EDGE('',*,*,#154,.F.);
#133=ORIENTED_EDGE('',*,*,#156,.T.);
#134=ORIENTED_EDGE('',*,*,#176,.F.);
#135=ORIENTED_EDGE('',*,*,#164,.T.);
#136=ORIENTED_EDGE('',*,*,#175,.T.);
#137=ORIENTED_EDGE('',*,*,#159,.T.);
#138=ORIENTED_EDGE('',*,*,#161,.F.);
#139=ORIENTED_EDGE('',*,*,#165,.T.);
#140=ORIENTED_EDGE('',*,*,#176,.T.);
#141=EDGE_CURVE('',#177,#177,#203,.T.);
#142=EDGE_CURVE('',#178,#178,#204,.T.);
#143=EDGE_CURVE('',#179,#179,#205,.T.);
#144=EDGE_CURVE('',#180,#180,#206,.T.);
#145=EDGE_CURVE('',#181,#182,#53,.F.);
#146=EDGE_CURVE('',#181,#183,#13,.T.);
#147=EDGE_CURVE('',#184,#183,#207,.T.);
#148=EDGE_CURVE('',#185,#184,#14,.T.);
#149=EDGE_CURVE('',#182,#185,#208,.F.);
#150=EDGE_CURVE('',#186,#187,#15,.T.);
#151=EDGE_CURVE('',#186,#185,#16,.T.);
#152=EDGE_CURVE('',#184,#187,#17,.T.);
#153=EDGE_CURVE('',#188,#189,#18,.T.);
#154=EDGE_CURVE('',#188,#186,#54,.F.);
#155=EDGE_CURVE('',#187,#189,#55,.T.);
#156=EDGE_CURVE('',#188,#190,#209,.F.);
#157=EDGE_CURVE('',#191,#189,#210,.T.);
#158=EDGE_CURVE('',#192,#191,#19,.T.);
#159=EDGE_CURVE('',#190,#192,#56,.F.);
#160=EDGE_CURVE('',#193,#194,#20,.T.);
#161=EDGE_CURVE('',#193,#192,#21,.T.);
#162=EDGE_CURVE('',#191,#194,#22,.T.);
#163=EDGE_CURVE('',#195,#196,#23,.T.);
#164=EDGE_CURVE('',#197,#195,#24,.T.);
#165=EDGE_CURVE('',#193,#197,#25,.T.);
#166=EDGE_CURVE('',#198,#194,#26,.T.);
#167=EDGE_CURVE('',#196,#198,#27,.T.);
#168=EDGE_CURVE('',#196,#199,#28,.T.);
#169=EDGE_CURVE('',#200,#198,#29,.T.);
#170=EDGE_CURVE('',#199,#200,#30,.T.);
#171=EDGE_CURVE('',#181,#199,#57,.T.);
#172=EDGE_CURVE('',#200,#183,#211,.T.);
#173=EDGE_CURVE('',#201,#201,#212,.T.);
#174=EDGE_CURVE('',#202,#202,#213,.T.);
#175=EDGE_CURVE('',#195,#182,#31,.T.);
#176=EDGE_CURVE('',#197,#190,#32,.T.);
#177=VERTEX_POINT('',#423);
#178=VERTEX_POINT('',#425);
#179=VERTEX_POINT('',#429);
#180=VERTEX_POINT('',#431);
#181=VERTEX_POINT('',#435);
#182=VERTEX_POINT('',#436);
#183=VERTEX_POINT('',#438);
#184=VERTEX_POINT('',#440);
#185=VERTEX_POINT('',#442);
#186=VERTEX_POINT('',#446);
#187=VERTEX_POINT('',#447);
#188=VERTEX_POINT('',#459);
#189=VERTEX_POINT('',#460);
#190=VERTEX_POINT('',#465);
#191=VERTEX_POINT('',#467);
#192=VERTEX_POINT('',#469);
#193=VERTEX_POINT('',#473);
#194=VERTEX_POINT('',#474);
#195=VERTEX_POINT('',#479);
#196=VERTEX_POINT('',#480);
#197=VERTEX_POINT('',#482);
#198=VERTEX_POINT('',#485);
#199=VERTEX_POINT('',#489);
#200=VERTEX_POINT('',#491);
#201=VERTEX_POINT('',#498);
#202=VERTEX_POINT('',#501);
#203=CIRCLE('',#300,0.0025);
#204=CIRCLE('',#301,0.0025);
#205=CIRCLE('',#304,0.0025);
#206=CIRCLE('',#305,0.0025);
#207=CIRCLE('',#309,0.00479427805077241);
#208=CIRCLE('',#310,0.00479427805077241);
#209=CIRCLE('',#315,0.00476255967134969);
#210=CIRCLE('',#316,0.00476255967134969);
#211=CIRCLE('',#323,0.00479291013355856);
#212=CIRCLE('',#325,0.0025);
#213=CIRCLE('',#327,0.0025);
#214=EDGE_LOOP('',(#69));
#215=EDGE_LOOP('',(#70));
#216=EDGE_LOOP('',(#71));
#217=EDGE_LOOP('',(#72));
#218=EDGE_LOOP('',(#73));
#219=EDGE_LOOP('',(#74));
#220=EDGE_LOOP('',(#75,#76,#77,#78,#79));
#221=EDGE_LOOP('',(#80,#81,#82,#83));
#222=EDGE_LOOP('',(#84,#85,#86,#87));
#223=EDGE_LOOP('',(#88,#89,#90,#91,#92));
#224=EDGE_LOOP('',(#93,#94,#95,#96));
#225=EDGE_LOOP('',(#97,#98,#99,#100,#101,#102));
#226=EDGE_LOOP('',(#103,#104,#105,#106));
#227=EDGE_LOOP('',(#107,#108,#109,#110));
#228=EDGE_LOOP('',(#111));
#229=EDGE_LOOP('',(#112));
#230=EDGE_LOOP('',(#113,#114,#115,#116,#117,#118,#119,#120));
#231=EDGE_LOOP('',(#121));
#232=EDGE_LOOP('',(#122));
#233=EDGE_LOOP('',(#123));
#234=EDGE_LOOP('',(#124));
#235=EDGE_LOOP('',(#125,#126,#127,#128,#129));
#236=EDGE_LOOP('',(#130,#131,#132,#133,#134,#135,#136));
#237=EDGE_LOOP('',(#137,#138,#139,#140));
#238=FACE_BOUND('',#214,.T.);
#239=FACE_BOUND('',#215,.T.);
#240=FACE_BOUND('',#216,.T.);
#241=FACE_BOUND('',#217,.T.);
#242=FACE_BOUND('',#218,.T.);
#243=FACE_BOUND('',#219,.T.);
#244=FACE_BOUND('',#220,.T.);
#245=FACE_BOUND('',#221,.T.);
#246=FACE_BOUND('',#222,.T.);
#247=FACE_BOUND('',#223,.T.);
#248=FACE_BOUND('',#224,.T.);
#249=FACE_BOUND('',#225,.T.);
#250=FACE_BOUND('',#226,.T.);
#251=FACE_BOUND('',#227,.T.);
#252=FACE_BOUND('',#228,.T.);
#253=FACE_BOUND('',#229,.T.);
#254=FACE_BOUND('',#230,.T.);
#255=FACE_BOUND('',#231,.T.);
#256=FACE_BOUND('',#232,.T.);
#257=FACE_BOUND('',#233,.T.);
#258=FACE_BOUND('',#234,.T.);
#259=FACE_BOUND('',#235,.T.);
#260=FACE_BOUND('',#236,.T.);
#261=FACE_BOUND('',#237,.T.);
#262=CYLINDRICAL_SURFACE('',#299,0.0025);
#263=CYLINDRICAL_SURFACE('',#303,0.0025);
#264=CYLINDRICAL_SURFACE('',#307,0.00479427805077241);
#265=CYLINDRICAL_SURFACE('',#314,0.00476255967134969);
#266=CYLINDRICAL_SURFACE('',#321,0.00479291013355856);
#267=CYLINDRICAL_SURFACE('',#328,0.0025);
#268=ADVANCED_FACE('',(#238,#239),#262,.T.);
#269=ADVANCED_FACE('',(#240),#58,.F.);
#270=ADVANCED_FACE('',(#241,#242),#263,.T.);
#271=ADVANCED_FACE('',(#243),#59,.F.);
#272=ADVANCED_FACE('',(#244),#264,.T.);
#273=ADVANCED_FACE('',(#245),#60,.F.);
#274=ADVANCED_FACE('',(#246),#12,.F.);
#275=ADVANCED_FACE('',(#247),#265,.T.);
#276=ADVANCED_FACE('',(#248),#61,.F.);
#277=ADVANCED_FACE('',(#249),#62,.T.);
#278=ADVANCED_FACE('',(#250),#63,.T.);
#279=ADVANCED_FACE('',(#251),#266,.T.);
#280=ADVANCED_FACE('',(#252,#253,#254,#255),#64,.F.);
#281=ADVANCED_FACE('',(#256),#65,.F.);
#282=ADVANCED_FACE('',(#257,#258),#267,.T.);
#283=ADVANCED_FACE('',(#259),#66,.F.);
#284=ADVANCED_FACE('',(#260),#67,.F.);
#285=ADVANCED_FACE('',(#261),#68,.F.);
#286=CLOSED_SHELL('',(#268,#269,#270,#271,#272,#273,#274,#275,#276,#277,
#278,#279,#280,#281,#282,#283,#284,#285));
#287=STYLED_ITEM('',(#288),#295);
#288=PRESENTATION_STYLE_ASSIGNMENT((#289));
#289=SURFACE_STYLE_USAGE(.BOTH.,#290);
#290=SURFACE_SIDE_STYLE('',(#291));
#291=SURFACE_STYLE_FILL_AREA(#292);
#292=FILL_AREA_STYLE('',(#293));
#293=FILL_AREA_STYLE_COLOUR('',#294);
#294=COLOUR_RGB('',0.647058823529412,0.647058823529412,0.647058823529412);
#295=MANIFOLD_SOLID_BREP('Part 9',#286);
#296=SHAPE_DEFINITION_REPRESENTATION(#514,#297);
#297=SHAPE_REPRESENTATION('Part 9',(#298),#509);
#298=AXIS2_PLACEMENT_3D('',#420,#332,#333);
#299=AXIS2_PLACEMENT_3D('',#421,#334,#335);
#300=AXIS2_PLACEMENT_3D('',#422,#336,#337);
#301=AXIS2_PLACEMENT_3D('',#424,#338,#339);
#302=AXIS2_PLACEMENT_3D('',#426,#340,#341);
#303=AXIS2_PLACEMENT_3D('',#427,#342,#343);
#304=AXIS2_PLACEMENT_3D('',#428,#344,#345);
#305=AXIS2_PLACEMENT_3D('',#430,#346,#347);
#306=AXIS2_PLACEMENT_3D('',#432,#348,#349);
#307=AXIS2_PLACEMENT_3D('',#433,#350,#351);
#308=AXIS2_PLACEMENT_3D('',#434,#352,#353);
#309=AXIS2_PLACEMENT_3D('',#439,#355,#356);
#310=AXIS2_PLACEMENT_3D('',#443,#358,#359);
#311=AXIS2_PLACEMENT_3D('',#444,#360,#361);
#312=AXIS2_PLACEMENT_3D('',#461,#366,#367);
#313=AXIS2_PLACEMENT_3D('',#462,#368,#369);
#314=AXIS2_PLACEMENT_3D('',#463,#370,#371);
#315=AXIS2_PLACEMENT_3D('',#464,#372,#373);
#316=AXIS2_PLACEMENT_3D('',#466,#374,#375);
#317=AXIS2_PLACEMENT_3D('',#470,#377,#378);
#318=AXIS2_PLACEMENT_3D('',#471,#379,#380);
#319=AXIS2_PLACEMENT_3D('',#477,#384,#385);
#320=AXIS2_PLACEMENT_3D('',#487,#391,#392);
#321=AXIS2_PLACEMENT_3D('',#493,#396,#397);
#322=AXIS2_PLACEMENT_3D('',#494,#398,#399);
#323=AXIS2_PLACEMENT_3D('',#495,#400,#401);
#324=AXIS2_PLACEMENT_3D('',#496,#402,#403);
#325=AXIS2_PLACEMENT_3D('',#497,#404,#405);
#326=AXIS2_PLACEMENT_3D('',#499,#406,#407);
#327=AXIS2_PLACEMENT_3D('',#500,#408,#409);
#328=AXIS2_PLACEMENT_3D('',#502,#410,#411);
#329=AXIS2_PLACEMENT_3D('',#503,#412,#413);
#330=AXIS2_PLACEMENT_3D('',#505,#415,#416);
#331=AXIS2_PLACEMENT_3D('',#507,#418,#419);
#332=DIRECTION('',(0.,0.,1.));
#333=DIRECTION('',(1.,0.,0.));
#334=DIRECTION('',(0.,0.113632048618806,-0.993522902366469));
#335=DIRECTION('',(0.,0.993522902366469,0.113632048618806));
#336=DIRECTION('',(0.,-0.113632051321999,0.993522902057298));
#337=DIRECTION('',(0.,-0.993522902057298,-0.113632051321999));
#338=DIRECTION('',(0.,-0.113632048618806,0.993522902366469));
#339=DIRECTION('',(1.,0.,0.));
#340=DIRECTION('',(0.,-0.113632048618806,0.993522902366469));
#341=DIRECTION('',(1.,0.,0.));
#342=DIRECTION('',(0.,0.113632048618806,-0.993522902366469));
#343=DIRECTION('',(0.,0.993522902366469,0.113632048618806));
#344=DIRECTION('',(0.,-0.113632051321999,0.993522902057298));
#345=DIRECTION('',(0.,-0.993522902057298,-0.113632051321999));
#346=DIRECTION('',(0.,-0.113632048618806,0.993522902366469));
#347=DIRECTION('',(1.,0.,0.));
#348=DIRECTION('',(0.,-0.113632048618806,0.993522902366469));
#349=DIRECTION('',(1.,0.,0.));
#350=DIRECTION('',(0.,0.113632051321999,-0.993522902057298));
#351=DIRECTION('',(0.,0.993522902057298,0.113632051321999));
#352=DIRECTION('',(0.,0.,-1.));
#353=DIRECTION('',(0.,1.,0.));
#354=DIRECTION('',(0.,0.113632051321999,-0.993522902057298));
#355=DIRECTION('',(0.,0.113632051321999,-0.993522902057298));
#356=DIRECTION('',(0.999999999986307,-5.19924366032924E-6,-5.94652343266224E-7));
#357=DIRECTION('',(0.,0.113632051321999,-0.993522902057298));
#358=DIRECTION('',(0.,0.113632051321999,-0.993522902057298));
#359=DIRECTION('',(0.,0.993522902057298,0.113632051321999));
#360=DIRECTION('',(-1.,0.,0.));
#361=DIRECTION('',(0.,0.,1.));
#362=DIRECTION('',(0.,0.113632051321999,-0.993522902057298));
#363=DIRECTION('',(0.,-0.993522902057298,-0.113632051321999));
#364=DIRECTION('',(0.,0.993522902057298,0.113632051321999));
#365=DIRECTION('',(0.,0.113632051321999,-0.993522902057298));
#366=DIRECTION('',(0.,-0.113632051321999,0.993522902057298));
#367=DIRECTION('',(0.,-0.993522902057298,-0.113632051321999));
#368=DIRECTION('',(0.,-0.113632051321999,0.993522902057298));
#369=DIRECTION('',(0.,-0.993522902057298,-0.113632051321999));
#370=DIRECTION('',(0.,0.113632051321999,-0.993522902057298));
#371=DIRECTION('',(0.,0.993522902057298,0.113632051321999));
#372=DIRECTION('',(0.,0.113632051321999,-0.993522902057298));
#373=DIRECTION('',(0.,0.993522902057298,0.113632051321999));
#374=DIRECTION('',(0.,0.113632051321999,-0.993522902057298));
#375=DIRECTION('',(5.00213448222233E-6,0.993522902044868,0.113632051320581));
#376=DIRECTION('',(0.,0.113632051321999,-0.993522902057298));
#377=DIRECTION('',(0.,0.,-1.));
#378=DIRECTION('',(0.,1.,0.));
#379=DIRECTION('',(0.,-0.993522902057298,-0.113632051321999));
#380=DIRECTION('',(0.,0.113632051321999,-0.993522902057298));
#381=DIRECTION('',(0.,0.113632051321999,-0.993522902057298));
#382=DIRECTION('',(1.,0.,0.));
#383=DIRECTION('',(-1.,0.,0.));
#384=DIRECTION('',(-1.,0.,0.));
#385=DIRECTION('',(0.,0.,1.));
#386=DIRECTION('',(0.,-1.,0.));
#387=DIRECTION('',(0.,-0.993522902057298,-0.113632051321999));
#388=DIRECTION('',(0.,-1.,0.));
#389=DIRECTION('',(0.,0.993522902057298,0.113632051321999));
#390=DIRECTION('',(0.,0.113632051321999,-0.993522902057298));
#391=DIRECTION('',(0.,-0.993522902057298,-0.113632051321999));
#392=DIRECTION('',(0.,0.113632051321999,-0.993522902057298));
#393=DIRECTION('',(1.,0.,0.));
#394=DIRECTION('',(-1.,0.,0.));
#395=DIRECTION('',(0.,0.113632051321999,-0.993522902057298));
#396=DIRECTION('',(4.31960982533288E-16,-0.113632051321999,0.993522902057298));
#397=DIRECTION('',(0.,-0.993522902057298,-0.113632051321999));
#398=DIRECTION('',(0.,0.,-1.));
#399=DIRECTION('',(3.80140090324728E-15,-1.,0.));
#400=DIRECTION('',(4.31960982533288E-16,-0.113632051321999,0.993522902057298));
#401=DIRECTION('',(0.,-0.993522902057298,-0.113632051321999));
#402=DIRECTION('',(0.,-0.113632051321999,0.993522902057298));
#403=DIRECTION('',(1.,0.,0.));
#404=DIRECTION('',(0.,0.113632051321999,-0.993522902057298));
#405=DIRECTION('',(0.,0.993522902057298,0.113632051321999));
#406=DIRECTION('',(0.,-0.113632048618806,0.993522902366469));
#407=DIRECTION('',(1.,0.,0.));
#408=DIRECTION('',(0.,-0.113632048618806,0.993522902366469));
#409=DIRECTION('',(1.,0.,0.));
#410=DIRECTION('',(0.,0.113632048618806,-0.993522902366469));
#411=DIRECTION('',(0.,0.993522902366469,0.113632048618806));
#412=DIRECTION('',(0.,0.,-1.));
#413=DIRECTION('',(-1.,0.,0.));
#414=DIRECTION('',(1.,0.,0.));
#415=DIRECTION('',(0.,0.113632051321999,-0.993522902057298));
#416=DIRECTION('',(0.,0.993522902057298,0.113632051321999));
#417=DIRECTION('',(1.,0.,0.));
#418=DIRECTION('',(0.,0.,-1.));
#419=DIRECTION('',(-1.,0.,0.));
#420=CARTESIAN_POINT('',(0.,0.,0.));
#421=CARTESIAN_POINT('',(0.0402689516969681,-0.029548621809781,0.0278386583863333));
#422=CARTESIAN_POINT('',(0.0402689516969681,-0.0279687211780806,0.0140250601969425));
#423=CARTESIAN_POINT('',(0.0402689516969681,-0.0304525284332238,0.0137409800686375));
#424=CARTESIAN_POINT('',(0.0402689516969681,-0.0267078205943108,0.0030005858271716));
#425=CARTESIAN_POINT('',(0.0427689516969681,-0.0267078205943108,0.0030005858271716));
#426=CARTESIAN_POINT('',(8.48481791770883E-10,0.000645226700367629,0.00612903187774379));
#427=CARTESIAN_POINT('',(0.0305316516969681,-0.029548621809781,0.0278386583863333));
#428=CARTESIAN_POINT('',(0.0305316516969681,-0.0279687211780806,0.0140250601969425));
#429=CARTESIAN_POINT('',(0.0305316516969681,-0.0304525284332238,0.0137409800686375));
#430=CARTESIAN_POINT('',(0.0305316516969681,-0.0267078205943108,0.0030005858271716));
#431=CARTESIAN_POINT('',(0.0330316516969681,-0.0267078205943108,0.0030005858271716));
#432=CARTESIAN_POINT('',(8.48481791770883E-10,0.000645226700367629,0.00612903187774379));
#433=CARTESIAN_POINT('',(0.0452119719492321,-0.028688632054913,0.0189753185554688));
#434=CARTESIAN_POINT('',(0.0452119719492321,-0.0285198956589385,0.0175));
#435=CARTESIAN_POINT('',(0.0463881673591391,-0.0331979621805239,0.0174999989970169));
#436=CARTESIAN_POINT('',(0.0474497875710954,-0.0327874999999135,0.0175));
#437=CARTESIAN_POINT('',(0.0463881657263153,-0.0333062877598835,0.0184471840867334));
#438=CARTESIAN_POINT('',(0.0463881673591388,-0.0327381341294213,0.0134795690702253));
#439=CARTESIAN_POINT('',(0.0452119719492321,-0.028120471798303,0.0140077040451824));
#440=CARTESIAN_POINT('',(0.0500062499999963,-0.028120484261613,0.014007702619718));
#441=CARTESIAN_POINT('',(0.0500062499999963,-0.0286886445182229,0.0189753171300045));
#442=CARTESIAN_POINT('',(0.0500062500000045,-0.0285750124669009,0.0179817942279472));
#443=CARTESIAN_POINT('',(0.0452119719492321,-0.0285750000035911,0.0179817956534115));
#444=CARTESIAN_POINT('',(0.0500062500000045,-0.000113632053119767,0.022243522901847));
#445=CARTESIAN_POINT('',(0.0500062500000045,0.0284613679486736,0.0255117272482252));
#446=CARTESIAN_POINT('',(0.0500062500000045,0.0285749999999955,0.0245182043461678));
#447=CARTESIAN_POINT('',(0.0500062500000045,0.0290295282052836,0.0205441127379387));
#448=CARTESIAN_POINT('',(0.0500062500000045,-1.79776672877812E-12,0.0212499999997897));
#449=CARTESIAN_POINT('',(0.0500062500000045,0.000454528203490227,0.0172759083915605));
#450=CARTESIAN_POINT('',(0.0500062500000035,0.0285749999999956,0.0245182043461678));
#451=CARTESIAN_POINT('',(0.0500062500000035,0.0290295282052835,0.0205441127379386));
#452=CARTESIAN_POINT('',(0.0500062499545681,0.0299710375370315,0.0246778731456765));
#453=CARTESIAN_POINT('',(0.0500062499545681,0.0304255657423195,0.0207037815374474));
#454=CARTESIAN_POINT('',(0.0493558480562476,0.031353664422141,0.0248360081306302));
#455=CARTESIAN_POINT('',(0.0493558480562476,0.031808192627429,0.020861916522401));
#456=CARTESIAN_POINT('',(0.0482804071187395,0.0322438035094442,0.0249378158798453));
#457=CARTESIAN_POINT('',(0.0482804071187395,0.0326983317147322,0.0209637242716162));
#458=CARTESIAN_POINT('',(0.0482804071187395,0.0321301714581222,0.0259313387819027));
#459=CARTESIAN_POINT('',(0.0482804071187395,0.0322438035094443,0.0249378158798453));
#460=CARTESIAN_POINT('',(0.0482804071187395,0.0326983317147322,0.0209637242716162));
#461=CARTESIAN_POINT('',(0.0452437498449945,0.0285749998449955,0.02451820432844));
#462=CARTESIAN_POINT('',(0.0452437498449945,0.0290295280502835,0.0205441127202108));
#463=CARTESIAN_POINT('',(0.0452437500000045,0.0284850541090749,0.0255144363020263));
#464=CARTESIAN_POINT('',(0.0452437500000045,0.0285986861603969,0.024520913399969));
#465=CARTESIAN_POINT('',(0.0474587645078632,0.0327874999999955,0.025));
#466=CARTESIAN_POINT('',(0.0452437500000045,0.0290532143656849,0.0205468217917398));
#467=CARTESIAN_POINT('',(0.0452437619114865,0.0337849264715779,0.0210880012167378));
#468=CARTESIAN_POINT('',(0.0452437619114865,0.0332167662149679,0.0260556157270244));
#469=CARTESIAN_POINT('',(0.0452437619114865,0.0333374999999955,0.025));
#470=CARTESIAN_POINT('',(0.0452437500000045,0.0285438916579152,0.025));
#471=CARTESIAN_POINT('',(0.0376706273028038,0.0332167662149753,0.0260556157270252));
#472=CARTESIAN_POINT('',(0.0208443516969681,0.0332167662149753,0.0260556157270252));
#473=CARTESIAN_POINT('',(0.0208443516969681,0.0333374999999955,0.025));
#474=CARTESIAN_POINT('',(0.0208443516969681,0.0337849264715853,0.0210880012167387));
#475=CARTESIAN_POINT('',(0.0376706273028038,0.0333374999999955,0.025));
#476=CARTESIAN_POINT('',(0.0376706273028038,0.0337849264715853,0.0210880012167387));
#477=CARTESIAN_POINT('',(0.0208443516969681,-0.000113632051280981,0.0222435229020573));
#478=CARTESIAN_POINT('',(0.0208443516969681,-0.000113632051280981,0.0175));
#479=CARTESIAN_POINT('',(0.0208443516969681,-0.0327874999999135,0.0175));
#480=CARTESIAN_POINT('',(0.0208443516969681,-0.0333374999999135,0.0175));
#481=CARTESIAN_POINT('',(0.0208443516969681,4.10193526281105E-14,0.02125));
#482=CARTESIAN_POINT('',(0.0208443516969681,0.0327874999999955,0.025));
#483=CARTESIAN_POINT('',(0.0208443516969681,-0.000113632051280981,0.025));
#484=CARTESIAN_POINT('',(0.0208443516969681,0.000454528205329013,0.0172759083917708));
#485=CARTESIAN_POINT('',(0.0208443516969681,-0.0328758700609273,0.0134638155668029));
#486=CARTESIAN_POINT('',(0.0208443516969681,-0.0334440303175373,0.0184314300770894));
#487=CARTESIAN_POINT('',(0.0246271890840078,-0.0334440303175373,0.0184314300770894));
#488=CARTESIAN_POINT('',(0.0246271890840078,-0.0333374999999135,0.0175));
#489=CARTESIAN_POINT('',(0.0452437498449945,-0.0333374999999135,0.0175));
#490=CARTESIAN_POINT('',(0.0246271890840078,-0.0328758700609273,0.0134638155668029));
#491=CARTESIAN_POINT('',(0.0452437498449962,-0.0328758697554189,0.0134638156017448));
#492=CARTESIAN_POINT('',(0.0452437498449945,-0.0334440303175373,0.0184314300770894));
#493=CARTESIAN_POINT('',(0.0452437771012521,-0.0284855232396906,0.0172567650787931));
#494=CARTESIAN_POINT('',(0.0452437771012521,-0.0285133427121886,0.0175));
#495=CARTESIAN_POINT('',(0.0452437771012521,-0.0281140034647945,0.0140084438469561));
#496=CARTESIAN_POINT('',(0.0354003306841612,0.000454528205333442,0.0172759083917714));
#497=CARTESIAN_POINT('',(0.0452437498449945,0.0270381105521402,0.0203163486144374));
#498=CARTESIAN_POINT('',(0.0452437498449945,0.0295219178072834,0.0206004287427424));
#499=CARTESIAN_POINT('',(8.48481791770883E-10,0.000645226700367629,0.00612903187774379));
#500=CARTESIAN_POINT('',(0.0452437498449945,0.0282990111422147,0.00929187409376638));
#501=CARTESIAN_POINT('',(0.0477437498449945,0.0282990111422147,0.00929187409376638));
#502=CARTESIAN_POINT('',(0.0452437498449945,0.0254582099267445,0.0341299466529282));
#503=CARTESIAN_POINT('',(-0.00389374999999549,-0.0345624999999135,0.0175));
#504=CARTESIAN_POINT('',(-0.00389374999999549,-0.0327874999999135,0.0175));
#505=CARTESIAN_POINT('',(-0.00389374999999549,4.10158018659956E-14,0.02125));
#506=CARTESIAN_POINT('',(-0.00389374999999549,0.0327874999999955,0.025));
#507=CARTESIAN_POINT('',(-0.00389374999999549,0.0345624999999955,0.025));
#508=MECHANICAL_DESIGN_GEOMETRIC_PRESENTATION_REPRESENTATION('',(#287),
#509);
#509=(
GEOMETRIC_REPRESENTATION_CONTEXT(3)
GLOBAL_UNCERTAINTY_ASSIGNED_CONTEXT((#510))
GLOBAL_UNIT_ASSIGNED_CONTEXT((#513,#512,#511))
REPRESENTATION_CONTEXT('Part 9','TOP_LEVEL_ASSEMBLY_PART')
);
#510=UNCERTAINTY_MEASURE_WITH_UNIT(LENGTH_MEASURE(2.E-5),#513,
'DISTANCE_ACCURACY_VALUE','Maximum Tolerance applied to model');
#511=(
NAMED_UNIT(*)
SI_UNIT($,.STERADIAN.)
SOLID_ANGLE_UNIT()
);
#512=(
NAMED_UNIT(*)
PLANE_ANGLE_UNIT()
SI_UNIT($,.RADIAN.)
);
#513=(
LENGTH_UNIT()
NAMED_UNIT(*)
SI_UNIT($,.METRE.)
);
#514=PRODUCT_DEFINITION_SHAPE('','',#515);
#515=PRODUCT_DEFINITION('','',#517,#516);
#516=PRODUCT_DEFINITION_CONTEXT('',#523,'design');
#517=PRODUCT_DEFINITION_FORMATION_WITH_SPECIFIED_SOURCE('','',#519,
 .NOT_KNOWN.);
#518=PRODUCT_RELATED_PRODUCT_CATEGORY('','',(#519));
#519=PRODUCT('Part 9','Part 9','Part 9',(#521));
#520=PRODUCT_CATEGORY('','');
#521=PRODUCT_CONTEXT('',#523,'mechanical');
#522=APPLICATION_PROTOCOL_DEFINITION('international standard',
'ap242_managed_model_based_3d_engineering',2020,#523);
#523=APPLICATION_CONTEXT('managed model based 3d engineering');
ENDSEC;
END-ISO-10303-21;
