ISO-10303-21;
HEADER;
/* Generated by software containing ST-Developer
 * from STEP Tools, Inc. (www.steptools.com) 
 */
/* OPTION: using custom renumber hook */

FILE_DESCRIPTION(
/* description */ ('STEP AP242 Edition 2',
'CAx-IF Rec.Pracs.---Representation and Presentation of Product Manufa
cturing Information (PMI)---4.0---2014-10-13',
'CAx-IF Rec.Pracs.---3D Tessellated Geometry---0.4---2014-09-14','2;1',
'CAx-IF Rec.Pracs.---User Defined Attributes---1.5---2016-08-15'),
/* implementation_level */ '2;1');

FILE_NAME(
/* name */ 'Print-PartStudio - Part 8',
/* time_stamp */ '2026-09-26T22:12:48Z',
/* author */ (''),
/* organization */ (''),
/* preprocessor_version */ 'ST-DEVELOPER v20',
/* originating_system */ 'ONSHAPE BY PTC INC, 1.221',
/* authorisation */ '  ');

FILE_SCHEMA (('AP242_MANAGED_MODEL_BASED_3D_ENGINEERING_MIM_LF { 1 0 10303 442 3 1 4 }'));
ENDSEC;

DATA;
#10=SHAPE_REPRESENTATION_RELATIONSHIP('','',#229,#11);
#11=ADVANCED_BREP_SHAPE_REPRESENTATION('',(#227),#357);
#12=ORIENTED_EDGE('',*,*,#68,.F.);
#13=ORIENTED_EDGE('',*,*,#69,.T.);
#14=ORIENTED_EDGE('',*,*,#70,.F.);
#15=ORIENTED_EDGE('',*,*,#71,.F.);
#16=ORIENTED_EDGE('',*,*,#71,.T.);
#17=ORIENTED_EDGE('',*,*,#72,.F.);
#18=ORIENTED_EDGE('',*,*,#73,.F.);
#19=ORIENTED_EDGE('',*,*,#74,.T.);
#20=ORIENTED_EDGE('',*,*,#75,.T.);
#21=ORIENTED_EDGE('',*,*,#76,.T.);
#22=ORIENTED_EDGE('',*,*,#77,.T.);
#23=ORIENTED_EDGE('',*,*,#68,.T.);
#24=ORIENTED_EDGE('',*,*,#74,.F.);
#25=ORIENTED_EDGE('',*,*,#78,.F.);
#26=ORIENTED_EDGE('',*,*,#79,.F.);
#27=ORIENTED_EDGE('',*,*,#80,.F.);
#28=ORIENTED_EDGE('',*,*,#81,.F.);
#29=ORIENTED_EDGE('',*,*,#75,.F.);
#30=ORIENTED_EDGE('',*,*,#82,.T.);
#31=ORIENTED_EDGE('',*,*,#83,.T.);
#32=ORIENTED_EDGE('',*,*,#84,.T.);
#33=ORIENTED_EDGE('',*,*,#85,.T.);
#34=ORIENTED_EDGE('',*,*,#83,.F.);
#35=ORIENTED_EDGE('',*,*,#86,.T.);
#36=ORIENTED_EDGE('',*,*,#87,.T.);
#37=ORIENTED_EDGE('',*,*,#72,.T.);
#38=ORIENTED_EDGE('',*,*,#70,.T.);
#39=ORIENTED_EDGE('',*,*,#82,.F.);
#40=ORIENTED_EDGE('',*,*,#88,.T.);
#41=ORIENTED_EDGE('',*,*,#89,.F.);
#42=ORIENTED_EDGE('',*,*,#90,.T.);
#43=ORIENTED_EDGE('',*,*,#91,.T.);
#44=ORIENTED_EDGE('',*,*,#78,.T.);
#45=ORIENTED_EDGE('',*,*,#73,.T.);
#46=ORIENTED_EDGE('',*,*,#87,.F.);
#47=ORIENTED_EDGE('',*,*,#88,.F.);
#48=ORIENTED_EDGE('',*,*,#80,.T.);
#49=ORIENTED_EDGE('',*,*,#92,.F.);
#50=ORIENTED_EDGE('',*,*,#93,.F.);
#51=ORIENTED_EDGE('',*,*,#89,.T.);
#52=ORIENTED_EDGE('',*,*,#86,.F.);
#53=ORIENTED_EDGE('',*,*,#79,.T.);
#54=ORIENTED_EDGE('',*,*,#91,.F.);
#55=ORIENTED_EDGE('',*,*,#94,.F.);
#56=ORIENTED_EDGE('',*,*,#92,.T.);
#57=ORIENTED_EDGE('',*,*,#93,.T.);
#58=ORIENTED_EDGE('',*,*,#94,.T.);
#59=ORIENTED_EDGE('',*,*,#90,.F.);
#60=ORIENTED_EDGE('',*,*,#81,.T.);
#61=ORIENTED_EDGE('',*,*,#85,.F.);
#62=ORIENTED_EDGE('',*,*,#95,.F.);
#63=ORIENTED_EDGE('',*,*,#76,.F.);
#64=ORIENTED_EDGE('',*,*,#95,.T.);
#65=ORIENTED_EDGE('',*,*,#84,.F.);
#66=ORIENTED_EDGE('',*,*,#69,.F.);
#67=ORIENTED_EDGE('',*,*,#77,.F.);
#68=EDGE_CURVE('',#96,#97,#114,.T.);
#69=EDGE_CURVE('',#96,#98,#115,.T.);
#70=EDGE_CURVE('',#99,#98,#116,.T.);
#71=EDGE_CURVE('',#97,#99,#117,.T.);
#72=EDGE_CURVE('',#100,#99,#118,.T.);
#73=EDGE_CURVE('',#101,#100,#119,.T.);
#74=EDGE_CURVE('',#101,#97,#120,.T.);
#75=EDGE_CURVE('',#102,#103,#121,.T.);
#76=EDGE_CURVE('',#103,#104,#122,.T.);
#77=EDGE_CURVE('',#104,#96,#123,.T.);
#78=EDGE_CURVE('',#105,#101,#124,.T.);
#79=EDGE_CURVE('',#106,#105,#125,.T.);
#80=EDGE_CURVE('',#102,#106,#126,.T.);
#81=EDGE_CURVE('',#103,#107,#127,.T.);
#82=EDGE_CURVE('',#102,#108,#128,.T.);
#83=EDGE_CURVE('',#108,#107,#129,.T.);
#84=EDGE_CURVE('',#98,#109,#130,.T.);
#85=EDGE_CURVE('',#109,#107,#131,.T.);
#86=EDGE_CURVE('',#108,#110,#132,.T.);
#87=EDGE_CURVE('',#110,#100,#133,.T.);
#88=EDGE_CURVE('',#102,#108,#134,.T.);
#89=EDGE_CURVE('',#111,#110,#135,.T.);
#90=EDGE_CURVE('',#111,#112,#136,.T.);
#91=EDGE_CURVE('',#112,#105,#137,.T.);
#92=EDGE_CURVE('',#113,#106,#138,.T.);
#93=EDGE_CURVE('',#111,#113,#139,.T.);
#94=EDGE_CURVE('',#113,#112,#140,.T.);
#95=EDGE_CURVE('',#104,#109,#141,.T.);
#96=VERTEX_POINT('',#300);
#97=VERTEX_POINT('',#301);
#98=VERTEX_POINT('',#303);
#99=VERTEX_POINT('',#305);
#100=VERTEX_POINT('',#309);
#101=VERTEX_POINT('',#311);
#102=VERTEX_POINT('',#315);
#103=VERTEX_POINT('',#316);
#104=VERTEX_POINT('',#318);
#105=VERTEX_POINT('',#321);
#106=VERTEX_POINT('',#323);
#107=VERTEX_POINT('',#327);
#108=VERTEX_POINT('',#329);
#109=VERTEX_POINT('',#333);
#110=VERTEX_POINT('',#336);
#111=VERTEX_POINT('',#342);
#112=VERTEX_POINT('',#344);
#113=VERTEX_POINT('',#348);
#114=LINE('',#299,#142);
#115=LINE('',#302,#143);
#116=LINE('',#304,#144);
#117=LINE('',#306,#145);
#118=LINE('',#308,#146);
#119=LINE('',#310,#147);
#120=LINE('',#312,#148);
#121=LINE('',#314,#149);
#122=LINE('',#317,#150);
#123=LINE('',#319,#151);
#124=LINE('',#320,#152);
#125=LINE('',#322,#153);
#126=LINE('',#324,#154);
#127=LINE('',#326,#155);
#128=LINE('',#328,#156);
#129=LINE('',#330,#157);
#130=LINE('',#332,#158);
#131=LINE('',#334,#159);
#132=LINE('',#335,#160);
#133=LINE('',#337,#161);
#134=LINE('',#339,#162);
#135=LINE('',#341,#163);
#136=LINE('',#343,#164);
#137=LINE('',#345,#165);
#138=LINE('',#347,#166);
#139=LINE('',#349,#167);
#140=LINE('',#351,#168);
#141=LINE('',#354,#169);
#142=VECTOR('',#247,1.);
#143=VECTOR('',#248,1.);
#144=VECTOR('',#249,1.);
#145=VECTOR('',#250,1.);
#146=VECTOR('',#253,1.);
#147=VECTOR('',#254,1.);
#148=VECTOR('',#255,1.);
#149=VECTOR('',#258,1.);
#150=VECTOR('',#259,1.);
#151=VECTOR('',#260,1.);
#152=VECTOR('',#261,1.);
#153=VECTOR('',#262,1.);
#154=VECTOR('',#263,1.);
#155=VECTOR('',#266,1.);
#156=VECTOR('',#267,1.);
#157=VECTOR('',#268,1.);
#158=VECTOR('',#271,1.);
#159=VECTOR('',#272,1.);
#160=VECTOR('',#273,1.);
#161=VECTOR('',#274,1.);
#162=VECTOR('',#277,1.);
#163=VECTOR('',#280,1.);
#164=VECTOR('',#281,1.);
#165=VECTOR('',#282,1.);
#166=VECTOR('',#285,1.);
#167=VECTOR('',#286,1.);
#168=VECTOR('',#289,1.);
#169=VECTOR('',#294,1.);
#170=EDGE_LOOP('',(#12,#13,#14,#15));
#171=EDGE_LOOP('',(#16,#17,#18,#19));
#172=EDGE_LOOP('',(#20,#21,#22,#23,#24,#25,#26,#27));
#173=EDGE_LOOP('',(#28,#29,#30,#31));
#174=EDGE_LOOP('',(#32,#33,#34,#35,#36,#37,#38));
#175=EDGE_LOOP('',(#39,#40));
#176=EDGE_LOOP('',(#41,#42,#43,#44,#45,#46));
#177=EDGE_LOOP('',(#47,#48,#49,#50,#51,#52));
#178=EDGE_LOOP('',(#53,#54,#55,#56));
#179=EDGE_LOOP('',(#57,#58,#59));
#180=EDGE_LOOP('',(#60,#61,#62,#63));
#181=EDGE_LOOP('',(#64,#65,#66,#67));
#182=FACE_BOUND('',#170,.T.);
#183=FACE_BOUND('',#171,.T.);
#184=FACE_BOUND('',#172,.T.);
#185=FACE_BOUND('',#173,.T.);
#186=FACE_BOUND('',#174,.T.);
#187=FACE_BOUND('',#175,.T.);
#188=FACE_BOUND('',#176,.T.);
#189=FACE_BOUND('',#177,.T.);
#190=FACE_BOUND('',#178,.T.);
#191=FACE_BOUND('',#179,.T.);
#192=FACE_BOUND('',#180,.T.);
#193=FACE_BOUND('',#181,.T.);
#194=PLANE('',#231);
#195=PLANE('',#232);
#196=PLANE('',#233);
#197=PLANE('',#234);
#198=PLANE('',#235);
#199=PLANE('',#236);
#200=PLANE('',#237);
#201=PLANE('',#238);
#202=PLANE('',#239);
#203=PLANE('',#240);
#204=PLANE('',#241);
#205=PLANE('',#242);
#206=ADVANCED_FACE('',(#182),#194,.T.);
#207=ADVANCED_FACE('',(#183),#195,.F.);
#208=ADVANCED_FACE('',(#184),#196,.F.);
#209=ADVANCED_FACE('',(#185),#197,.T.);
#210=ADVANCED_FACE('',(#186),#198,.F.);
#211=ADVANCED_FACE('',(#187),#199,.F.);
#212=ADVANCED_FACE('',(#188),#200,.F.);
#213=ADVANCED_FACE('',(#189),#201,.T.);
#214=ADVANCED_FACE('',(#190),#202,.F.);
#215=ADVANCED_FACE('',(#191),#203,.F.);
#216=ADVANCED_FACE('',(#192),#204,.F.);
#217=ADVANCED_FACE('',(#193),#205,.F.);
#218=CLOSED_SHELL('',(#206,#207,#208,#209,#210,#211,#212,#213,#214,#215,
#216,#217));
#219=STYLED_ITEM('',(#220),#227);
#220=PRESENTATION_STYLE_ASSIGNMENT((#221));
#221=SURFACE_STYLE_USAGE(.BOTH.,#222);
#222=SURFACE_SIDE_STYLE('',(#223));
#223=SURFACE_STYLE_FILL_AREA(#224);
#224=FILL_AREA_STYLE('',(#225));
#225=FILL_AREA_STYLE_COLOUR('',#226);
#226=COLOUR_RGB('',0.615686274509804,0.811764705882353,0.929411764705882);
#227=MANIFOLD_SOLID_BREP('Part 8',#218);
#228=SHAPE_DEFINITION_REPRESENTATION(#362,#229);
#229=SHAPE_REPRESENTATION('Part 8',(#230),#357);
#230=AXIS2_PLACEMENT_3D('',#297,#243,#244);
#231=AXIS2_PLACEMENT_3D('',#298,#245,#246);
#232=AXIS2_PLACEMENT_3D('',#307,#251,#252);
#233=AXIS2_PLACEMENT_3D('',#313,#256,#257);
#234=AXIS2_PLACEMENT_3D('',#325,#264,#265);
#235=AXIS2_PLACEMENT_3D('',#331,#269,#270);
#236=AXIS2_PLACEMENT_3D('',#338,#275,#276);
#237=AXIS2_PLACEMENT_3D('',#340,#278,#279);
#238=AXIS2_PLACEMENT_3D('',#346,#283,#284);
#239=AXIS2_PLACEMENT_3D('',#350,#287,#288);
#240=AXIS2_PLACEMENT_3D('',#352,#290,#291);
#241=AXIS2_PLACEMENT_3D('',#353,#292,#293);
#242=AXIS2_PLACEMENT_3D('',#355,#295,#296);
#243=DIRECTION('',(0.,0.,1.));
#244=DIRECTION('',(1.,0.,0.));
#245=DIRECTION('',(0.,0.,1.));
#246=DIRECTION('',(1.,0.,0.));
#247=DIRECTION('',(0.,1.,0.));
#248=DIRECTION('',(1.,0.,0.));
#249=DIRECTION('',(0.,-1.,0.));
#250=DIRECTION('',(1.,0.,0.));
#251=DIRECTION('',(0.,-1.,0.));
#252=DIRECTION('',(0.,0.,-1.));
#253=DIRECTION('',(0.,0.,1.));
#254=DIRECTION('',(1.,0.,0.));
#255=DIRECTION('',(0.,0.,1.));
#256=DIRECTION('',(1.,0.,0.));
#257=DIRECTION('',(0.,0.,-1.));
#258=DIRECTION('',(0.,0.,1.));
#259=DIRECTION('',(0.,1.,0.));
#260=DIRECTION('',(0.,0.993522902057298,0.113632051321999));
#261=DIRECTION('',(0.,1.,0.));
#262=DIRECTION('',(0.,0.993522902366469,0.113632048618806));
#263=DIRECTION('',(0.,0.,-1.));
#264=DIRECTION('',(0.,-1.,0.));
#265=DIRECTION('',(0.,0.,-1.));
#266=DIRECTION('',(1.,0.,0.));
#267=DIRECTION('',(1.,0.,0.));
#268=DIRECTION('',(0.,0.,1.));
#269=DIRECTION('',(-1.,0.,0.));
#270=DIRECTION('',(0.,0.,1.));
#271=DIRECTION('',(0.,-0.993522902057298,-0.113632051321999));
#272=DIRECTION('',(0.,-1.,0.));
#273=DIRECTION('',(0.,0.,-1.));
#274=DIRECTION('',(0.,1.,0.));
#275=DIRECTION('',(0.,0.,1.));
#276=DIRECTION('',(1.,0.,0.));
#277=DIRECTION('',(1.,0.,0.));
#278=DIRECTION('',(0.,0.,1.));
#279=DIRECTION('',(1.,0.,0.));
#280=DIRECTION('',(1.,0.,0.));
#281=DIRECTION('',(0.,1.,0.));
#282=DIRECTION('',(-1.,0.,0.));
#283=DIRECTION('',(0.,-1.,0.));
#284=DIRECTION('',(1.,0.,0.));
#285=DIRECTION('',(-1.,0.,0.));
#286=DIRECTION('',(0.,0.,-1.));
#287=DIRECTION('',(0.,-0.113632048618806,0.99352290236647));
#288=DIRECTION('',(0.,-0.99352290236647,-0.113632048618806));
#289=DIRECTION('',(0.,0.993522902366469,0.113632048618806));
#290=DIRECTION('',(-1.,0.,0.));
#291=DIRECTION('',(0.,-1.,0.));
#292=DIRECTION('',(0.,0.,-1.));
#293=DIRECTION('',(-1.,0.,0.));
#294=DIRECTION('',(1.,0.,0.));
#295=DIRECTION('',(0.,0.113632051321999,-0.993522902057298));
#296=DIRECTION('',(0.,0.993522902057298,0.113632051321999));
#297=CARTESIAN_POINT('',(0.,0.,0.));
#298=CARTESIAN_POINT('',(4.49640324973189E-15,-4.48946435582798E-15,0.025));
#299=CARTESIAN_POINT('',(0.0157943516969681,0.0324715449677588,0.025));
#300=CARTESIAN_POINT('',(0.0157943516969681,0.0327874999999955,0.025));
#301=CARTESIAN_POINT('',(0.0157943516969681,0.0333374999999955,0.025));
#302=CARTESIAN_POINT('',(-0.0161937499999955,0.0327874999999955,0.025));
#303=CARTESIAN_POINT('',(0.0207943516969681,0.0327874999999955,0.025));
#304=CARTESIAN_POINT('',(0.0207943516969681,-0.0324722830981038,0.025));
#305=CARTESIAN_POINT('',(0.0207943516969681,0.0333374999999955,0.025));
#306=CARTESIAN_POINT('',(0.018294351696968,0.0333374999999955,0.025));
#307=CARTESIAN_POINT('',(0.018294351696968,0.0333374999999955,0.0123));
#308=CARTESIAN_POINT('',(0.0207943516969681,0.0333374999999955,0.0123));
#309=CARTESIAN_POINT('',(0.0207943516969681,0.0333374999999955,0.00983304674292641));
#310=CARTESIAN_POINT('',(0.0167178669089897,0.0333374999999955,0.00983304674292641));
#311=CARTESIAN_POINT('',(0.0157943516969681,0.0333374999999955,0.00983304674292641));
#312=CARTESIAN_POINT('',(0.0157943516969681,0.0333374999999955,0.0123));
#313=CARTESIAN_POINT('',(0.0157943516969681,0.0324715449677588,0.0123));
#314=CARTESIAN_POINT('',(0.0157943516969681,-0.0332875000000045,0.0123));
#315=CARTESIAN_POINT('',(0.0157943516969681,-0.0332874998437545,0.01019));
#316=CARTESIAN_POINT('',(0.0157943516969681,-0.0332875000000045,0.0175));
#317=CARTESIAN_POINT('',(0.0157943516969681,0.0324715449677588,0.0175));
#318=CARTESIAN_POINT('',(0.0157943516969681,-0.0327874999999135,0.0175));
#319=CARTESIAN_POINT('',(0.0157943516969681,0.0310418448794086,0.0248003444391243));
#320=CARTESIAN_POINT('',(0.0157943516969681,-0.0332775000000045,0.00983304674292641));
#321=CARTESIAN_POINT('',(0.0157943516969681,0.0329656395151893,0.00983304674292641));
#322=CARTESIAN_POINT('',(0.0157943516969681,-0.000155930242407517,0.00604483832210212));
#323=CARTESIAN_POINT('',(0.0157943516969681,-0.0332775000000045,0.00225662990127783));
#324=CARTESIAN_POINT('',(0.0157943516969681,-0.0332775000000045,0.0100115233714632));
#325=CARTESIAN_POINT('',(0.0182943516969681,-0.0332875000000045,0.0123));
#326=CARTESIAN_POINT('',(0.0182943516969681,-0.0332875000000045,0.0175));
#327=CARTESIAN_POINT('',(0.0207943516969681,-0.0332875000000045,0.0175));
#328=CARTESIAN_POINT('',(0.0182943516969681,-0.0332875000000045,0.01019));
#329=CARTESIAN_POINT('',(0.0207943516969681,-0.0332874998437545,0.01019));
#330=CARTESIAN_POINT('',(0.0207943516969681,-0.0332875000000045,0.0123));
#331=CARTESIAN_POINT('',(0.0207943516969681,-0.0324722830981038,0.0123));
#332=CARTESIAN_POINT('',(0.0207943516969681,-0.0330634126914254,0.0174684430776006));
#333=CARTESIAN_POINT('',(0.0207943516969681,-0.0327874999999135,0.0175));
#334=CARTESIAN_POINT('',(0.0207943516969681,-0.0324722830981038,0.0175));
#335=CARTESIAN_POINT('',(0.0207943516969681,-0.0332775000000045,0.0100115233714632));
#336=CARTESIAN_POINT('',(0.0207943516969681,-0.0332775000000045,0.00983304674292641));
#337=CARTESIAN_POINT('',(0.0207943516969681,-0.0332775000000045,0.00983304674292641));
#338=CARTESIAN_POINT('',(4.49640324973189E-15,-4.48946435582798E-15,0.01019));
#339=CARTESIAN_POINT('',(0.018294351696968,-0.0332775000000045,0.01019));
#340=CARTESIAN_POINT('',(0.0167178669089897,-0.0332775000000045,0.00983304674292641));
#341=CARTESIAN_POINT('',(0.0167178669089897,-0.0332775000000045,0.00983304674292641));
#342=CARTESIAN_POINT('',(0.0207343516969681,-0.0332775000000045,0.00983304674292641));
#343=CARTESIAN_POINT('',(0.0207343516969681,-0.0332775000000045,0.00983304674292641));
#344=CARTESIAN_POINT('',(0.0207343516969681,0.0329656395151893,0.0098330467429264));
#345=CARTESIAN_POINT('',(0.0207343516969681,0.0329656395151893,0.0098330467429264));
#346=CARTESIAN_POINT('',(4.49640324973189E-15,-0.0332775000000045,0.0166217050495705));
#347=CARTESIAN_POINT('',(0.0207343516969681,-0.0332775000000045,0.00225662990127783));
#348=CARTESIAN_POINT('',(0.0207343516969681,-0.0332775000000045,0.00225662990127783));
#349=CARTESIAN_POINT('',(0.0207343516969681,-0.0332775000000045,0.00604483832210213));
#350=CARTESIAN_POINT('',(0.0207343516969681,-0.000155930242407517,0.00604483832210212));
#351=CARTESIAN_POINT('',(0.0207343516969681,-0.000155930242407517,0.00604483832210212));
#352=CARTESIAN_POINT('',(0.0207343516969681,-1.20312545204282E-8,0.0128335091287457));
#353=CARTESIAN_POINT('',(-0.0161937499999955,-0.0345624999999135,0.0175));
#354=CARTESIAN_POINT('',(-0.0161937499999955,-0.0327874999999135,0.0175));
#355=CARTESIAN_POINT('',(-0.0161937499999955,4.09325351391487E-14,0.02125));
#356=MECHANICAL_DESIGN_GEOMETRIC_PRESENTATION_REPRESENTATION('',(#219),
#357);
#357=(
GEOMETRIC_REPRESENTATION_CONTEXT(3)
GLOBAL_UNCERTAINTY_ASSIGNED_CONTEXT((#358))
GLOBAL_UNIT_ASSIGNED_CONTEXT((#361,#360,#359))
REPRESENTATION_CONTEXT('Part 8','TOP_LEVEL_ASSEMBLY_PART')
);
#358=UNCERTAINTY_MEASURE_WITH_UNIT(LENGTH_MEASURE(2.00096875000236E-5),
#361,'DISTANCE_ACCURACY_VALUE','Maximum Tolerance applied to model');
#359=(
NAMED_UNIT(*)
SI_UNIT($,.STERADIAN.)
SOLID_ANGLE_UNIT()
);
#360=(
NAMED_UNIT(*)
PLANE_ANGLE_UNIT()
SI_UNIT($,.RADIAN.)
);
#361=(
LENGTH_UNIT()
NAMED_UNIT(*)
SI_UNIT($,.METRE.)
);
#362=PRODUCT_DEFINITION_SHAPE('','',#363);
#363=PRODUCT_DEFINITION('','',#365,#364);
#364=PRODUCT_DEFINITION_CONTEXT('',#371,'design');
#365=PRODUCT_DEFINITION_FORMATION_WITH_SPECIFIED_SOURCE('','',#367,
 .NOT_KNOWN.);
#366=PRODUCT_RELATED_PRODUCT_CATEGORY('','',(#367));
#367=PRODUCT('Part 8','Part 8','Part 8',(#369));
#368=PRODUCT_CATEGORY('','');
#369=PRODUCT_CONTEXT('',#371,'mechanical');
#370=APPLICATION_PROTOCOL_DEFINITION('international standard',
'ap242_managed_model_based_3d_engineering',2020,#371);
#371=APPLICATION_CONTEXT('managed model based 3d engineering');
ENDSEC;
END-ISO-10303-21;
